<svg width="45" height="44" viewBox="0 0 45 44" fill="none" xmlns="http://www.w3.org/2000/svg">
<rect x="0.5" width="44" height="44" rx="12" fill="#1F2937"/>
<path fill-rule="evenodd" clip-rule="evenodd" d="M22.5 17C21.1739 17 19.9021 17.5268 18.9645 18.4645C18.0268 19.4021 17.5 20.6739 17.5 22C17.5 23.3261 18.0268 24.5979 18.9645 25.5355C19.9021 26.4732 21.1739 27 22.5 27C23.8261 27 25.0979 26.4732 26.0355 25.5355C26.9732 24.5979 27.5 23.3261 27.5 22C27.5 20.6739 26.9732 19.4021 26.0355 18.4645C25.0979 17.5268 23.8261 17 22.5 17ZM19.5 22C19.5 22.7956 19.8161 23.5587 20.3787 24.1213C20.9413 24.6839 21.7044 25 22.5 25C23.2956 25 24.0587 24.6839 24.6213 24.1213C25.1839 23.5587 25.5 22.7956 25.5 22C25.5 21.2044 25.1839 20.4413 24.6213 19.8787C24.0587 19.3161 23.2956 19 22.5 19C21.7044 19 20.9413 19.3161 20.3787 19.8787C19.8161 20.4413 19.5 21.2044 19.5 22Z" fill="#FDBA74"/>
<path d="M28.5 15C28.2348 15 27.9804 15.1054 27.7929 15.2929C27.6054 15.4804 27.5 15.7348 27.5 16C27.5 16.2652 27.6054 16.5196 27.7929 16.7071C27.9804 16.8946 28.2348 17 28.5 17C28.7652 17 29.0196 16.8946 29.2071 16.7071C29.3946 16.5196 29.5 16.2652 29.5 16C29.5 15.7348 29.3946 15.4804 29.2071 15.2929C29.0196 15.1054 28.7652 15 28.5 15Z" fill="#FDBA74"/>
<path fill-rule="evenodd" clip-rule="evenodd" d="M15.5 11C14.4391 11 13.4217 11.4214 12.6716 12.1716C11.9214 12.9217 11.5 13.9391 11.5 15V29C11.5 30.0609 11.9214 31.0783 12.6716 31.8284C13.4217 32.5786 14.4391 33 15.5 33H29.5C30.5609 33 31.5783 32.5786 32.3284 31.8284C33.0786 31.0783 33.5 30.0609 33.5 29V15C33.5 13.9391 33.0786 12.9217 32.3284 12.1716C31.5783 11.4214 30.5609 11 29.5 11H15.5ZM29.5 13H15.5C14.9696 13 14.4609 13.2107 14.0858 13.5858C13.7107 13.9609 13.5 14.4696 13.5 15V29C13.5 29.5304 13.7107 30.0391 14.0858 30.4142C14.4609 30.7893 14.9696 31 15.5 31H29.5C30.0304 31 30.5391 30.7893 30.9142 30.4142C31.2893 30.0391 31.5 29.5304 31.5 29V15C31.5 14.4696 31.2893 13.9609 30.9142 13.5858C30.5391 13.2107 30.0304 13 29.5 13Z" fill="#FDBA74"/>
</svg>
