<svg width="45" height="44" viewBox="0 0 45 44" fill="none" xmlns="http://www.w3.org/2000/svg">
<rect x="0.5" width="44" height="44" rx="12" fill="#1F2937"/>
<path d="M23.5 11H26.2225C26.4205 11.9831 26.965 13.2234 27.9206 14.454C28.8556 15.6599 30.0959 16.5 31.75 16.5V19.25C29.3396 19.25 27.5288 18.1307 26.25 16.7351V26.125C26.25 27.4847 25.8468 28.814 25.0914 29.9445C24.3359 31.0751 23.2622 31.9563 22.006 32.4767C20.7497 32.997 19.3674 33.1332 18.0338 32.8679C16.7001 32.6026 15.4751 31.9478 14.5136 30.9864C13.5522 30.0249 12.8974 28.7999 12.6321 27.4662C12.3668 26.1326 12.503 24.7503 13.0233 23.4941C13.5437 22.2378 14.4249 21.1641 15.5555 20.4086C16.686 19.6532 18.0153 19.25 19.375 19.25V22C18.5592 22 17.7616 22.2419 17.0833 22.6952C16.4049 23.1484 15.8762 23.7927 15.564 24.5464C15.2518 25.3002 15.1701 26.1296 15.3293 26.9297C15.4884 27.7299 15.8813 28.4649 16.4582 29.0418C17.0351 29.6187 17.7701 30.0116 18.5703 30.1707C19.3704 30.3299 20.1998 30.2482 20.9536 29.936C21.7073 29.6238 22.3516 29.0951 22.8048 28.4167C23.2581 27.7384 23.5 26.9408 23.5 26.125V11Z" fill="#FDBA74"/>
</svg>
